<?xml version="1.0" encoding="utf-8"?>
<!-- Generator: Adobe Illustrator 27.8.1, SVG Export Plug-In . SVG Version: 6.00 Build 0)  -->
<svg version="1.1" id="Layer_1" xmlns="http://www.w3.org/2000/svg" xmlns:xlink="http://www.w3.org/1999/xlink" x="0px" y="0px"
	 viewBox="0 0 23 19" style="enable-background:new 0 0 23 19;" xml:space="preserve">
<style type="text/css">
	.st0{fill:#FFFFFF;}
</style>
<path class="st0" d="M2,18.5c2.4-2.7,4.7-5.4,7.1-8.1c-2.5-3.3-5-6.5-7.5-9.8c0,0,0.1,0,0.1,0c0.3,0,0.7,0,1,0c1.7,0,3.3,0,5,0
	c0,0,0,0,0.1,0c0.1,0,0.1,0,0.1,0.1c0.3,0.4,0.7,0.9,1,1.3c1.1,1.4,2.1,2.8,3.2,4.2c0,0,0,0,0.1,0.1c0,0,0.1-0.1,0.1-0.1
	c1.6-1.8,3.2-3.7,4.8-5.5c0.1-0.1,0.1-0.1,0.2-0.1c0.9,0,1.9,0,2.8,0c0,0,0.1,0,0.1,0c-2.2,2.5-4.4,5.1-6.7,7.6
	c2.6,3.4,5.2,6.9,7.8,10.3c0,0-0.1,0-0.1,0c-1.4,0-2.7,0-4.1,0c-0.6,0-1.2,0-1.8,0c-0.1,0-0.1,0-0.1-0.1c-1.1-1.5-2.2-2.9-3.4-4.4
	c-0.4-0.6-0.9-1.2-1.3-1.7c0,0,0,0-0.1-0.1c0,0,0,0-0.1,0.1c-1.5,1.7-3.1,3.5-4.6,5.2c-0.3,0.3-0.5,0.6-0.8,0.9c0,0-0.1,0.1-0.1,0.1
	C4,18.5,3,18.5,2,18.5C2,18.5,2,18.5,2,18.5z M17.8,16.7c0-0.1-0.1-0.1-0.1-0.1c-0.5-0.7-1-1.3-1.5-2c-1-1.3-2-2.7-3-4
	C11.8,8.7,10.4,6.9,9,5C8.4,4.1,7.7,3.2,7,2.3c0,0-0.1-0.1-0.1-0.1c-0.6,0-1.1,0-1.7,0c0,0,0,0-0.1,0c0,0,0.1,0.1,0.1,0.1
	C6.4,4,7.6,5.5,8.8,7.1c1.3,1.6,2.5,3.3,3.8,4.9c1.2,1.5,2.3,3,3.5,4.5c0,0,0.1,0.1,0.1,0.1C16.7,16.7,17.2,16.7,17.8,16.7
	C17.8,16.7,17.8,16.7,17.8,16.7z"/>
</svg>
